<?xml version="1.0" encoding="utf-8"?>
<!-- Generator: Adobe Illustrator 24.0.1, SVG Export Plug-In . SVG Version: 6.00 Build 0)  -->
<svg version="1.1" id="Layer_1" xmlns="http://www.w3.org/2000/svg" xmlns:xlink="http://www.w3.org/1999/xlink" x="0px" y="0px"
	 viewBox="0 0 800 800" style="enable-background:new 0 0 800 800;" xml:space="preserve">
<style type="text/css">
	.st0{fill:#CC8C00;}
	.st1{fill:#0C5D56;}
</style>
<g>
	<g>
		<path class="st0" d="M189.55,615.49c0.77,0,1.36-0.19,1.77-0.57c0.68-0.68,1.03-1.4,1.06-2.17v-11.29h-14.34v11.24
			c0,0.77,0.28,1.42,0.84,1.97c0.56,0.55,1.22,0.82,1.99,0.82h0.53l0.05,0.44H168v-0.44h0.58c0.77,0,1.42-0.27,1.97-0.82
			c0.55-0.55,0.83-1.2,0.86-1.97v-24.52c-0.03-0.77-0.32-1.42-0.86-1.97c-0.55-0.55-1.2-0.82-1.97-0.82H168v-0.44h13.46l-0.05,0.44
			h-0.53c-0.77,0-1.43,0.27-1.99,0.82c-0.56,0.55-0.84,1.2-0.84,1.97v11.37h14.34v-11.37c-0.03-0.77-0.32-1.42-0.86-1.97
			c-0.55-0.55-1.2-0.82-1.97-0.82h-0.58v-0.44h13.46v0.44h-0.58c-0.77,0-1.43,0.27-1.99,0.82c-0.56,0.55-0.84,1.2-0.84,1.97v24.52
			c0,0.77,0.28,1.42,0.84,1.97c0.56,0.55,1.22,0.82,1.99,0.82h0.58v0.44h-13.46v-0.44H189.55z"/>
		<path class="st0" d="M236.65,615.49h0.4v0.44h-14.12v-0.44h0.4c0.65,0,1.13-0.2,1.44-0.6c0.31-0.4,0.46-0.77,0.46-1.13
			c0-0.35-0.07-0.71-0.22-1.06l-2.17-5.44h-10.36l-2.3,5.44c-0.15,0.38-0.22,0.75-0.22,1.08c0,0.34,0.16,0.71,0.49,1.11
			c0.32,0.4,0.81,0.6,1.46,0.6h0.35v0.44h-9.47v-0.44h0.4c0.68,0,1.36-0.21,2.04-0.62c0.68-0.41,1.24-1.03,1.68-1.86l10.22-23.15
			c1.39-2.92,2.13-4.85,2.21-5.8h0.4l13.14,28.86c0.44,0.86,1,1.5,1.68,1.93C235.24,615.28,235.94,615.49,236.65,615.49z
			 M213.23,605.4h8.85l-4.29-10.89L213.23,605.4z"/>
		<path class="st0" d="M277.58,615.49h0.71v0.44h-13.28v-0.4h0.66c0.5-0.03,0.93-0.24,1.28-0.62c0.35-0.38,0.5-0.81,0.44-1.28
			l-1.73-16.07l-8.32,14.34c-1.09,1.83-1.65,3.47-1.68,4.91h-0.44l-11.37-19.12l-1.73,15.93c-0.06,0.47,0.09,0.91,0.44,1.31
			c0.35,0.4,0.78,0.6,1.28,0.6h0.66v0.4h-9.25v-0.44h0.71c0.83,0,1.54-0.25,2.15-0.75c0.61-0.5,0.97-1.18,1.08-2.03l3.67-28.37h0.4
			L257,606.91l13.19-22.57h0.4l3.76,28.37c0.15,0.86,0.52,1.53,1.13,2.03C276.08,615.24,276.78,615.49,277.58,615.49z"/>
		<path class="st0" d="M310.51,615.49h0.4v0.44h-14.12v-0.44h0.4c0.65,0,1.13-0.2,1.44-0.6c0.31-0.4,0.46-0.77,0.46-1.13
			c0-0.35-0.07-0.71-0.22-1.06l-2.17-5.44h-10.35l-2.3,5.44c-0.15,0.38-0.22,0.75-0.22,1.08c0,0.34,0.16,0.71,0.49,1.11
			c0.32,0.4,0.81,0.6,1.46,0.6h0.35v0.44h-9.47v-0.44h0.4c0.68,0,1.36-0.21,2.03-0.62c0.68-0.41,1.24-1.03,1.68-1.86l10.22-23.15
			c1.39-2.92,2.13-4.85,2.21-5.8h0.4l13.14,28.86c0.44,0.86,1,1.5,1.68,1.93C309.11,615.28,309.8,615.49,310.51,615.49z
			 M287.1,605.4h8.85l-4.29-10.89L287.1,605.4z"/>
		<path class="st0" d="M311.97,615.49c0.77,0,1.42-0.27,1.97-0.82s0.83-1.2,0.86-1.97v-24.52c-0.03-0.77-0.32-1.42-0.86-1.97
			c-0.55-0.55-1.2-0.82-1.97-0.82h-0.58v-0.44h13.45l-0.04,0.44h-0.53c-0.77,0-1.43,0.27-1.99,0.82c-0.56,0.55-0.84,1.2-0.84,1.97
			v25.85h5.8c2.15,0,3.96-0.62,5.42-1.86c1.46-1.24,2.54-2.99,3.25-5.27h0.44l-2.04,9.03h-22.93v-0.44H311.97z"/>
		<path class="st0" d="M369.46,615.49h0.4v0.44h-14.12v-0.44h0.4c0.65,0,1.13-0.2,1.44-0.6c0.31-0.4,0.46-0.77,0.46-1.13
			c0-0.35-0.07-0.71-0.22-1.06l-2.17-5.44H345.3l-2.3,5.44c-0.15,0.38-0.22,0.75-0.22,1.08c0,0.34,0.16,0.71,0.49,1.11
			c0.32,0.4,0.81,0.6,1.46,0.6h0.35v0.44h-9.47v-0.44h0.4c0.68,0,1.36-0.21,2.04-0.62c0.68-0.41,1.24-1.03,1.68-1.86l10.22-23.15
			c1.39-2.92,2.13-4.85,2.21-5.8h0.4l13.14,28.86c0.44,0.86,1,1.5,1.68,1.93C368.06,615.28,368.75,615.49,369.46,615.49z
			 M346.05,605.4h8.85l-4.29-10.89L346.05,605.4z"/>
		<path class="st0" d="M382.7,586.77v25.98c0.03,0.77,0.32,1.42,0.86,1.95c0.55,0.53,1.2,0.8,1.97,0.8h0.53l0.05,0.44h-13.45v-0.44
			h0.57c0.74,0,1.38-0.26,1.93-0.8s0.85-1.17,0.91-1.9v-26.02h-5.98c-1.36,0.03-2.43,0.46-3.23,1.28c-0.8,0.83-1.19,1.9-1.19,3.23
			v0.53h-0.44v-7.7c1.21,0.5,2.95,0.77,5.22,0.8h17.84c0.91,0,1.91-0.09,2.99-0.26c1.08-0.18,1.82-0.35,2.23-0.53v7.7h-0.44v-0.53
			c0-1.83-0.69-3.13-2.08-3.9c-0.65-0.38-1.43-0.59-2.34-0.62H382.7z"/>
		<path class="st0" d="M429.03,585.4h-0.75c-0.62,0-1.15,0.2-1.59,0.6c-0.44,0.4-0.68,0.89-0.71,1.48v17.26
			c0,3.63-1.14,6.51-3.41,8.63c-2.27,2.12-5.38,3.19-9.34,3.19c-4.66,0-8.23-1.04-10.71-3.12c-2.48-2.08-3.72-4.96-3.72-8.65v-17.17
			c-0.03-0.88-0.43-1.53-1.2-1.95c-0.35-0.18-0.74-0.26-1.15-0.26h-0.71v-0.44h12.75v0.44h-0.71c-0.65,0-1.2,0.2-1.64,0.6
			c-0.44,0.4-0.68,0.91-0.71,1.53v16.91c0,3.13,0.77,5.61,2.3,7.44s3.64,2.74,6.33,2.74s4.81-0.86,6.37-2.59
			c1.56-1.73,2.36-4.06,2.39-7.01v-17.48c-0.06-0.86-0.46-1.47-1.19-1.86c-0.35-0.18-0.74-0.26-1.15-0.26h-0.71v-0.44h9.25V585.4z"
			/>
		<path class="st0" d="M432.22,615.49c0.77,0,1.42-0.27,1.97-0.82s0.83-1.2,0.86-1.97v-24.52c-0.03-0.77-0.32-1.42-0.86-1.97
			c-0.55-0.55-1.2-0.82-1.97-0.82h-0.58v-0.44h13.45l-0.04,0.44h-0.53c-0.77,0-1.43,0.27-1.99,0.82c-0.56,0.55-0.84,1.2-0.84,1.97
			v25.85h5.8c2.15,0,3.96-0.62,5.42-1.86c1.46-1.24,2.54-2.99,3.25-5.27h0.44l-2.03,9.03h-22.93v-0.44H432.22z"/>
		<path class="st0" d="M506.26,622.35c4.16,0,7.57-1.08,10.22-3.23l0.27,0.18c-0.15,2.39-1.27,4.42-3.36,6.11
			c-2.36,1.92-5.29,2.88-8.78,2.88c-3.5,0-7.28-0.99-11.35-2.97c-1.83-0.91-4.86-2.73-9.07-5.44c-1.18-0.8-2.52-1.52-4.03-2.17
			c-1.5-0.65-2.91-1.03-4.2-1.15c-5.25-0.06-9.42-1.53-12.5-4.4c-3.08-2.88-4.62-6.79-4.62-11.73c0-4.94,1.57-8.86,4.71-11.75
			c3.14-2.89,7.38-4.34,12.7-4.34c5.33,0,9.55,1.45,12.68,4.34c3.13,2.89,4.69,6.82,4.69,11.77c0,3.9-1,7.18-2.99,9.85
			c-1.99,2.67-4.74,4.49-8.26,5.47c2.36,0.47,4.57,1.09,6.62,1.86c2.05,0.77,4.39,1.65,7.01,2.65
			C499.54,621.66,502.96,622.35,506.26,622.35z M466.03,600.45c0,2.89,0.41,5.42,1.24,7.57c0.82,2.15,2.01,3.81,3.54,4.96
			c1.53,1.15,3.33,1.73,5.4,1.73c3.13,0,5.61-1.28,7.44-3.83c1.83-2.55,2.74-6.03,2.74-10.42c0-4.4-0.91-7.87-2.74-10.42
			c-1.83-2.55-4.31-3.83-7.44-3.83c-3.13,0-5.61,1.28-7.44,3.83S466.03,596.05,466.03,600.45z"/>
		<path class="st0" d="M530.03,585.4h-0.75c-0.62,0-1.15,0.2-1.59,0.6c-0.44,0.4-0.68,0.89-0.71,1.48v17.26
			c0,3.63-1.14,6.51-3.41,8.63c-2.27,2.12-5.38,3.19-9.34,3.19c-4.66,0-8.23-1.04-10.71-3.12c-2.48-2.08-3.72-4.96-3.72-8.65v-17.17
			c-0.03-0.88-0.43-1.53-1.2-1.95c-0.35-0.18-0.74-0.26-1.15-0.26h-0.71v-0.44h12.75v0.44h-0.71c-0.65,0-1.2,0.2-1.64,0.6
			c-0.44,0.4-0.68,0.91-0.71,1.53v16.91c0,3.13,0.77,5.61,2.3,7.44s3.64,2.74,6.33,2.74c2.69,0,4.81-0.86,6.37-2.59
			c1.57-1.73,2.36-4.06,2.39-7.01v-17.48c-0.06-0.86-0.46-1.47-1.19-1.86c-0.35-0.18-0.74-0.26-1.15-0.26h-0.71v-0.44h9.25V585.4z"
			/>
		<path class="st0" d="M544.85,586.9h-1.9c-0.06,0-0.1,0-0.13,0v25.8c0.03,0.77,0.32,1.42,0.86,1.97s1.2,0.82,1.97,0.82h0.57v0.44
			h-13.45v-0.44h0.57c1.06,0,1.87-0.46,2.43-1.37c0.24-0.41,0.37-0.87,0.4-1.37v-24.56c-0.03-0.77-0.32-1.42-0.86-1.97
			c-0.55-0.55-1.2-0.82-1.97-0.82h-0.57v-0.44h15.18c2.86,0,5.28,0.62,7.26,1.86c1,0.62,1.8,1.48,2.39,2.59
			c0.59,1.11,0.89,2.55,0.89,4.34c0,1.79-0.62,3.5-1.86,5.16c-1.24,1.65-3.04,2.6-5.4,2.83c1.71,0.56,3.22,1.86,4.51,3.9
			c3.19,5.1,5.55,8.14,7.08,9.12c0.77,0.47,1.73,0.72,2.88,0.75v0.44h-4.34c-2.57,0-4.7-0.34-6.39-1.02
			c-1.7-0.68-3.03-1.87-4.01-3.59c-0.56-0.97-1.79-3.5-3.67-7.57c-0.83-1.8-1.83-2.79-3.01-2.97v-0.44h1.37
			c1.33,0,2.5-0.4,3.52-1.19c1.02-0.8,1.71-2.09,2.06-3.9c0.12-0.62,0.18-1.11,0.18-1.46c0-2.42-0.49-4.17-1.46-5.24
			c-0.97-1.08-2.23-1.63-3.76-1.66C545.89,586.9,545.45,586.9,544.85,586.9z"/>
		<path class="st0" d="M595.97,615.49h0.4v0.44h-14.12v-0.44h0.4c0.65,0,1.13-0.2,1.44-0.6c0.31-0.4,0.46-0.77,0.46-1.13
			c0-0.35-0.07-0.71-0.22-1.06l-2.17-5.44h-10.35l-2.3,5.44c-0.15,0.38-0.22,0.75-0.22,1.08c0,0.34,0.16,0.71,0.49,1.11
			c0.32,0.4,0.81,0.6,1.46,0.6h0.35v0.44h-9.47v-0.44h0.4c0.68,0,1.36-0.21,2.03-0.62c0.68-0.41,1.24-1.03,1.68-1.86l10.22-23.15
			c1.39-2.92,2.13-4.85,2.21-5.8h0.4l13.14,28.86c0.44,0.86,1,1.5,1.68,1.93C594.57,615.28,595.27,615.49,595.97,615.49z
			 M572.56,605.4h8.85l-4.29-10.89L572.56,605.4z"/>
		<path class="st0" d="M631.16,585.4c-1.03,0-1.82,0.44-2.35,1.33c-0.24,0.38-0.37,0.83-0.4,1.33v22.84c0,1.98,0.13,3.64,0.4,5
			l0.13,0.66h-0.4l-22.35-21.29v17.57c0,0.74,0.26,1.37,0.8,1.88c0.53,0.52,1.17,0.77,1.9,0.77h0.84v0.44h-13.41v-0.44h0.8
			c0.77,0,1.42-0.26,1.95-0.77c0.53-0.52,0.8-1.16,0.8-1.93v-22.97c0-1.95-0.13-3.57-0.4-4.87l-0.09-0.66h0.4l22.35,21.29V588.1
			c-0.03-0.77-0.31-1.41-0.84-1.93c-0.53-0.52-1.17-0.77-1.9-0.77h-0.8v-0.44H632v0.44H631.16z"/>
	</g>
	<g>
		<path class="st0" d="M359.28,422.77c-0.55-0.98-1.14-1.93-1.57-2.98c-0.27-0.67-0.44-1.41-0.26-2.11
			c0.37-1.47,2.18-1.69,3.46-1.58c1.9,0.17,3.51,1.31,4.69,2.74c0.1,0.12,0.2,0.25,0.3,0.37c0.22-0.23,0.36-1.81,0.36-2.41
			c0-2.16-1.28-5.19-3.39-6.31c-3.15-1.67-7.25-0.78-8.5,2.33c-1.39,3.46-0.02,6.82,1.96,10.1c1.85,3.06,3.65,6.14,5.36,9.26
			c0.49,0.91,0.98,2.36,0.84,3.01c-1.02-1.13-1.46-1.57-2.17-2.16c-2.4-2-4.56-4.51-7.47-5.71c-2.82-1.16-5.97,0.48-5.96,3.93
			c0.01,3.38,3.38,5.48,6.69,3.89c1.78-0.85,3.21-0.72,4.61,0c2.77,1.42,5.54,6.36,5.57,10.6c0.23-0.53,0.52-1.04,0.67-1.59
			c1.72-5.88,0.06-11.35-2.58-16.67C361.09,425.89,360.16,424.34,359.28,422.77z"/>
		<path class="st0" d="M374.99,230.31c1.61-1.33,3.28-2.59,4.81-4.01c2.96-2.74,4.92-6.12,5.24-10.17c0.19-2.47-0.1-5.12-3.08-5.95
			c-2.14-0.6-4.3,1.77-4.8,4.94c-0.08,0.52-0.09,1.05-0.14,1.73c-3.63-3.96-1.34-13.96,3.41-15.6c2.33-0.81,3.83,0.5,5.07,2.22
			c4.01,5.59,3.81,15.06-0.56,20.41C382.38,227,379.29,229.49,374.99,230.31z"/>
		<path class="st0" d="M430.49,436.81c1.61-1.33,3.28-2.59,4.81-4.01c2.96-2.74,4.92-6.12,5.24-10.17c0.19-2.47-0.1-5.12-3.08-5.95
			c-2.14-0.6-4.3,1.77-4.8,4.94c-0.08,0.52-0.09,1.05-0.14,1.73c-3.63-3.96-1.34-13.96,3.41-15.6c2.33-0.81,3.83,0.5,5.07,2.22
			c4.01,5.59,3.81,15.06-0.56,20.41C437.88,433.5,434.78,435.99,430.49,436.81z"/>
		<path class="st0" d="M468.07,325.49c1.61-1.33,3.28-2.59,4.81-4.01c2.96-2.74,4.92-6.12,5.24-10.17c0.19-2.47-0.1-5.12-3.08-5.95
			c-2.14-0.6-4.3,1.77-4.8,4.94c-0.08,0.52-0.09,1.05-0.14,1.73c-3.63-3.96-1.34-13.96,3.41-15.6c2.33-0.81,3.83,0.5,5.07,2.22
			c4.01,5.59,3.81,15.06-0.56,20.41C475.46,322.18,472.37,324.67,468.07,325.49z"/>
		<path class="st0" d="M324.93,309.61c1.61-1.33,3.28-2.59,4.81-4.01c2.96-2.74,4.92-6.12,5.24-10.17c0.19-2.47-0.1-5.12-3.08-5.95
			c-2.14-0.6-4.3,1.77-4.8,4.94c-0.08,0.52-0.09,1.05-0.14,1.73c-3.63-3.96-1.34-13.96,3.41-15.6c2.33-0.81,3.83,0.5,5.07,2.22
			c4.01,5.59,3.81,15.06-0.56,20.41C332.32,306.3,329.22,308.79,324.93,309.61z"/>
		<path class="st0" d="M419.87,419.99c-2.13,1.26-3.93,2.19-5.58,3.34c-3.21,2.24-5.62,5.15-6.14,9.14
			c-0.25,1.89-0.25,4.19,2.2,4.83c2.23,0.58,3.66-0.85,4.62-2.73c0.32-0.63,0.56-1.3,0.9-2.08c2.25,4.26-1.2,12.1-5.56,13.15
			c-2.26,0.54-3.43-0.78-4.36-2.45C400.83,433.98,408.63,420.5,419.87,419.99z"/>
		<path class="st0" d="M436.19,295.29c-2.13,1.26-3.93,2.19-5.58,3.34c-3.21,2.24-5.62,5.15-6.14,9.14
			c-0.25,1.89-0.25,4.19,2.2,4.83c2.23,0.58,3.66-0.85,4.62-2.73c0.32-0.63,0.56-1.3,0.9-2.08c2.25,4.26-1.2,12.1-5.56,13.15
			c-2.26,0.54-3.43-0.78-4.36-2.45C417.15,309.28,424.95,295.79,436.19,295.29z"/>
		<path class="st0" d="M336.12,413.11c-2.87,1.54-4.56,4.04-4.45,7.73c0.29-0.89,3.04-2.83,4.41-1.51c1.23,1.17,0.36,2.67-0.41,3.95
			c-0.95,1.57-2.08,2.8-3.56,4.22c4.87-2.38,8.54-6.96,8.1-11.5C340.04,413.25,338.26,411.96,336.12,413.11z"/>
		<path class="st0" d="M351.4,335.68c-2.87,1.54-4.56,4.04-4.45,7.73c0.29-0.89,3.04-2.83,4.41-1.51c1.23,1.17,0.36,2.67-0.41,3.95
			c-0.95,1.57-2.08,2.8-3.56,4.22c4.87-2.38,8.54-6.96,8.1-11.5C355.32,335.82,353.54,334.53,351.4,335.68z"/>
		<path class="st0" d="M450.99,265.1c-2.87,1.54-4.56,4.04-4.45,7.73c0.29-0.89,3.04-2.83,4.41-1.51c1.23,1.17,0.36,2.67-0.41,3.95
			c-0.95,1.57-2.08,2.8-3.56,4.22c4.87-2.38,8.54-6.96,8.1-11.5C454.91,265.24,453.13,263.95,450.99,265.1z"/>
		<path class="st0" d="M506.07,328.74c-4.49-28.85-19.65-51.33-35.23-75.24c-14.05-21.55-28.08-43.11-42.1-64.68
			c-2.94-4.52-5.87-9.05-8.82-13.56c-8.73-13.36-19.85-29.66-20.94-47.82c-0.47,2.23-1.12,7.49-1.38,9.74
			c-1.72,14.76,3.45,27.71,11.11,39.79c15.28,24.06,61.85,96.89,69.97,109.15c14.38,21.71,21.7,46.99,19.64,73.12
			c-1.49,18.86-6.99,38.13-18.73,53.04c-12.76,16.2-39.36,38.72-73.75,41.44c-14.66,1.16-29.51-0.45-43.52-5.14
			c-27.95-9.45-52.6-29.48-66.9-55.73c13.59,26.64,37.82,50.66,66.1,61.09c14.15,5.18,32.55,7.88,47.65,6.49
			c40.31-3.71,64.88-27.15,78.43-44.56C504.96,393.54,510.81,359.22,506.07,328.74z"/>
		<path class="st0" d="M331.62,262.16c-0.13,0.77-0.34,1.72-0.64,2.83c-0.3,1.12-0.63,2.2-0.99,3.24s-0.7,1.94-1.05,2.69
			c-0.34,0.74-0.61,1.13-0.82,1.16c-0.32,0.05-0.96-0.07-1.91-0.35c-0.95-0.28-1.99-0.68-3.14-1.18c-1.14-0.51-2.27-1.12-3.37-1.85
			c-1.1-0.72-1.96-1.52-2.57-2.4c-0.01-0.09,0.02-0.36,0.1-0.83s0.2-1.01,0.34-1.63c0.18-0.63,0.36-1.32,0.55-2.07
			c0.19-0.75,0.4-1.48,0.63-2.17c0.23-0.7,0.46-1.33,0.69-1.89c0.24-0.56,0.45-0.98,0.65-1.25c1.05,0.81,2.11,1.52,3.17,2.15
			c1.06,0.63,2.09,1.18,3.1,1.66c1.01,0.48,1.95,0.88,2.84,1.18c0.89,0.3,1.69,0.51,2.4,0.61L331.62,262.16z"/>
		<path class="st0" d="M341.53,234.79c-1.4-1.36-2.76-4.04-3.27-5.48c-1.36-3.9-0.94-8.29,1.25-11.81c1.28-2.06,3.05-3.78,5.03-5.17
			c3.4-2.4,7.13-4,10.25-6.83c3.18-2.88,6.45-6.32,8.18-10.27c1.49-3.4,2.07-6.83,2.39-10.51c0.2-2.2-0.14-4.93-0.25-7.14
			c0.02,0.3,0.51,0.97,0.63,1.28c0.49,1.21,0.87,2.46,1.19,3.73c1.01,4.05,1.3,8.31,0.71,12.45c-1.17,8.23-6.13,16.1-12.8,21.01
			c-2.09,1.54-4.33,2.85-6.46,4.32C339.13,226.74,341.53,234.78,341.53,234.79z"/>
		<path class="st0" d="M364.46,298.83c-0.05-0.23,0.01-0.46,0.18-0.68c0.17-0.22,0.35-0.44,0.55-0.66c1.14-1.45,2.32-2.99,3.54-4.61
			c1.22-1.63,2.28-3.39,3.18-5.27s1.54-3.92,1.94-6.09c0.39-2.18,0.34-4.54-0.17-7.08c-0.38-1.87-1-3.99-1.87-6.35
			s-2.03-4.97-3.47-7.83c-1.44-2.86-3.18-6-5.2-9.42c-2.03-3.42-4.38-7.15-7.04-11.17l-0.35,0.07c-0.49,1.62-0.76,3.14-0.79,4.56
			c-0.04,1.42,0.09,2.82,0.36,4.19c0.19,0.96,0.46,1.81,0.78,2.53c0.33,0.75,0.52,1.22,0.55,1.39s0.06,0.35,0.06,0.53
			c0.01,0.18-0.08,0.29-0.25,0.32c-0.23,0.05-0.46-0.04-0.67-0.28c-0.22-0.23-0.44-0.54-0.66-0.92c-0.78-1.3-1.45-2.62-2.01-3.95
			c-0.56-1.33-1-2.83-1.34-4.5c-0.31-1.52-0.37-3.06-0.2-4.61c0.17-1.56,0.48-3.17,0.92-4.84c0.44-1.67,0.97-3.4,1.58-5.2
			c0.58-1.79,1.13-3.68,1.64-5.67l0.35-0.07c1.99,3.4,4.13,6.89,6.4,10.48c2.28,3.62,4.46,7.26,6.54,10.93
			c2.08,3.67,3.93,7.34,5.57,10.99c1.63,3.66,2.81,7.25,3.52,10.79c0.27,1.34,0.48,2.6,0.62,3.77s0.24,2.32,0.28,3.43
			s0.03,2.21-0.04,3.29c-0.07,1.08-0.19,2.2-0.35,3.36c-0.37,3.15-1.38,6.15-3.02,9.03c-1.64,2.87-3.97,5.34-6.99,7.41
			c-0.89,0.55-1.63,1.06-2.2,1.54c-0.57,0.48-0.99,0.75-1.25,0.8c-0.18,0.04-0.32,0.05-0.45,0.04
			C364.58,299.1,364.5,299.01,364.46,298.83z"/>
		<path class="st0" d="M394.85,243.23c-0.15,0.8-0.41,1.72-0.78,2.75c-0.37,1.03-0.77,2.01-1.19,2.93c-0.42,0.92-0.81,1.7-1.16,2.33
			c-0.36,0.63-0.6,0.94-0.72,0.94c-0.39,0-0.89-0.13-1.5-0.38c-0.61-0.25-1.28-0.58-2.02-0.98c-0.73-0.4-1.47-0.86-2.21-1.36
			c-0.75-0.51-1.44-1.02-2.08-1.54c-0.64-0.52-1.18-1.03-1.63-1.52c-0.45-0.49-0.73-0.92-0.85-1.27c0-0.18,0.17-0.7,0.51-1.57
			c0.35-0.86,0.74-1.8,1.19-2.82c0.45-1.01,0.91-1.95,1.39-2.82c0.48-0.86,0.85-1.39,1.12-1.57c0.48,0.54,1.1,1.14,1.88,1.81
			c0.78,0.67,1.62,1.33,2.55,1.97s1.86,1.24,2.82,1.81C393.12,242.5,394.02,242.93,394.85,243.23z M399.5,233.57
			c1.22,1.52,2.73,2.88,4.54,4.07c1.8,1.19,3.63,2.13,5.48,2.82c-0.63,1.64-1.19,3.01-1.68,4.11c-0.49,1.1-0.92,1.99-1.28,2.66
			s-0.65,1.16-0.87,1.45c-0.23,0.3-0.38,0.45-0.47,0.45c-0.24,0-0.61-0.1-1.12-0.29c-0.51-0.19-1.09-0.47-1.74-0.83
			c-0.66-0.36-1.35-0.77-2.08-1.23c-0.73-0.46-1.42-0.95-2.08-1.48c-0.66-0.52-1.24-1.07-1.74-1.65c-0.51-0.58-0.86-1.14-1.07-1.68
			c0-0.21,0.14-0.68,0.42-1.41c0.28-0.73,0.63-1.54,1.03-2.44c0.4-0.89,0.84-1.77,1.32-2.62
			C398.64,234.66,399.09,234.01,399.5,233.57z"/>
		<path class="st0" d="M323.75,357.66c-0.09,0.57-0.24,1.19-0.47,1.88c-0.22,0.69-0.47,1.39-0.74,2.1
			c-0.27,0.72-0.56,1.41-0.87,2.08c-0.31,0.67-0.61,1.27-0.89,1.79c-0.28,0.52-0.52,0.94-0.72,1.25c-0.19,0.31-0.33,0.47-0.42,0.47
			c-0.39,0-0.91-0.13-1.57-0.4c-0.66-0.27-1.37-0.62-2.15-1.05s-1.57-0.92-2.39-1.48c-0.82-0.55-1.57-1.1-2.26-1.65
			c-0.69-0.55-1.27-1.08-1.74-1.59c-0.48-0.51-0.78-0.95-0.89-1.34c0-0.15,0.08-0.47,0.24-0.96c0.17-0.49,0.39-1.07,0.67-1.72
			c0.28-0.66,0.59-1.36,0.92-2.1c0.33-0.75,0.66-1.44,1-2.08c0.35-0.64,0.66-1.2,0.94-1.68c0.28-0.48,0.51-0.79,0.69-0.94
			c0.51,0.6,1.18,1.25,2.01,1.97c0.83,0.72,1.74,1.42,2.73,2.12c0.98,0.7,1.99,1.35,3.02,1.95
			C321.89,356.87,322.85,357.34,323.75,357.66z M328.76,347.29c0.63,0.8,1.35,1.58,2.17,2.33c0.82,0.75,1.7,1.43,2.64,2.06
			c0.94,0.63,1.92,1.2,2.93,1.72s2.01,0.96,3,1.32c-0.69,1.73-1.29,3.18-1.81,4.36c-0.52,1.18-0.97,2.13-1.34,2.86
			s-0.68,1.26-0.92,1.59c-0.24,0.33-0.4,0.49-0.49,0.49c-0.27,0-0.68-0.1-1.23-0.31c-0.55-0.21-1.18-0.5-1.88-0.87
			c-0.7-0.37-1.45-0.81-2.24-1.32c-0.79-0.51-1.53-1.04-2.22-1.61c-0.69-0.57-1.3-1.16-1.83-1.77c-0.54-0.61-0.92-1.21-1.16-1.81
			c0-0.21,0.15-0.71,0.45-1.5c0.3-0.79,0.67-1.66,1.12-2.62c0.45-0.95,0.92-1.89,1.43-2.82
			C327.88,348.47,328.34,347.77,328.76,347.29z"/>
		<path class="st0" d="M437.43,246.63c-0.83-2.01-1.81-4-2.94-5.98c-0.93-1.63-36.05-56.92-38.04-59.87
			c-7.37-10.95-13.41-22.45-14.25-36.51c-0.47,2.23-1.12,7.49-1.38,9.74c-1.72,14.76,3.45,27.71,11.11,39.79
			c5.29,8.33,30.27,45.84,35.75,54.06c1.27,2.05,2.45,3.98,3.55,5.78c1.09,1.8,2.03,3.49,2.8,5.07c0.77,1.58,1.23,3.05,1.38,4.42
			c0.2,1.84-0.36,3.92-1.69,6.23c-1.32,2.32-3.17,4.82-5.55,7.5c-2.38,2.66-4.87,4.66-7.47,6.02c-2.59,1.36-5.35,2.2-8.25,2.51
			c-0.61,0.07-1.33,0.08-2.02,0.1c-0.1-0.01-0.22-0.02-0.32-0.03l-0.22-0.34c1.34-4.25,2.3-7.99,2.89-11.2
			c0.58-3.21,0.77-5.75,0.57-7.62c-0.14-1.3-0.48-2.52-1-3.65c-0.53-1.13-1.21-2.09-2.07-2.88c-0.85-0.79-1.83-1.38-2.96-1.77
			c-1.12-0.39-2.36-0.51-3.73-0.36c-1.42,0.15-2.8,0.5-4.14,1.05c-1.33,0.55-2.6,1.28-3.79,2.19c-1.19,0.91-2.28,1.99-3.27,3.23
			c-0.99,1.25-1.85,2.64-2.58,4.19c-0.71,1.52-1.26,3.04-1.66,4.59c-0.4,1.54-0.7,3.04-0.89,4.5s-0.28,2.85-0.29,4.17
			c-0.01,1.32,0.05,2.51,0.16,3.58c0.21,1.93,0.56,3.55,1.06,4.86c0.5,1.31,1.25,2.39,2.24,3.24l0.03,0.27
			c-3.43,2.68-6.37,5.46-8.82,8.35c-1.55,1.83-2.89,3.79-4.13,5.8c-0.54,0.81-1.02,1.67-1.48,2.57c-0.18,0.34-0.41,0.66-0.58,1
			c-0.54,1.09-0.97,2.14-1.34,3.18c-0.64,1.56-1.26,3.18-1.86,4.9c-0.97,2.8-1.98,5.79-3.01,8.96c-1.06,3.2-2.34,6.55-3.82,10.04
			c-1.48,3.49-3.28,7.11-5.37,10.86c-2.1,3.75-4.7,7.56-7.79,11.43c-1.05,1.34-2.28,2.74-3.66,4.2c-1.39,1.45-2.87,2.92-4.45,4.41
			c-1.58,1.49-3.21,2.96-4.9,4.42c-1.68,1.45-3.34,2.84-4.97,4.16c-1.63,1.32-3.19,2.53-4.69,3.65c-1.5,1.12-2.83,2.09-4,2.91
			c-0.22,0.17-0.39,0.31-0.5,0.41c-0.11,0.1-0.16,0.23-0.14,0.37c0.02,0.15,0.08,0.24,0.19,0.27c0.11,0.03,0.24,0.04,0.39,0.02
			c0.27-0.03,0.77-0.21,1.52-0.55c0.74-0.34,1.7-0.76,2.88-1.28c1.14-0.54,2.49-1.14,4.06-1.79c1.56-0.65,3.28-1.31,5.16-2
			c2.4-0.83,4.73-1.8,7-2.91c2.26-1.11,4.4-2.37,6.41-3.77c2.01-1.4,3.87-2.96,5.59-4.67c1.72-1.71,3.26-3.61,4.63-5.67
			c1.52-2.29,2.81-4.61,3.86-6.96c1.05-2.35,1.97-4.72,2.76-7.11c0.79-2.39,1.54-4.81,2.23-7.26c0.67-2.44,1.41-4.91,2.24-7.42
			c0.82-2.5,1.78-5.04,2.87-7.62c1.09-2.58,2.43-5.2,4.03-7.86c0.3-0.51,0.6-0.98,0.9-1.45c2.24-3.09,4.91-6.25,8.06-9.46
			c3.58-3.65,7.98-7.38,13.28-11.17c0.59,0.24,1.21,0.44,1.86,0.59c1.25,0.29,2.58,0.44,4.01,0.47c1.43,0.03,2.93-0.05,4.5-0.22
			c2.05-0.22,4.12-0.69,6.21-1.41c2.1-0.72,4.12-1.76,6.08-3.11c1.95-1.35,3.8-3.04,5.53-5.07c4.21-4.94,7.21-10.97,8.48-17.28
			C442.14,258.1,438.62,249.51,437.43,246.63z M389.68,278.85c-0.09-0.86,0.13-1.89,0.68-3.09c0.54-1.2,1.34-2.36,2.39-3.47
			c1.05-1.12,2.31-2.1,3.78-2.95c1.47-0.85,3.08-1.37,4.83-1.55c2.55-0.27,4.57,0.21,6.05,1.46c1.48,1.25,2.36,3.15,2.64,5.7
			c0.15,1.42-0.54,3-2.08,4.72c-1.54,1.73-3.75,3.55-6.63,5.48c-3.48,0.02-6.23-0.46-8.25-1.43
			C391.06,282.76,389.92,281.13,389.68,278.85z"/>
		<path class="st0" d="M445.15,381.82c2.59-4.27,4.63-9.21,5.95-13.89c3.01-10.71,3.62-15.06,9.46-16.74
			c1.6-0.46,3.44-0.59,5.44-0.6c2.01-0.01,4.05,0.15,6.12,0.48c0.85-1.06,1.57-2.24,2.18-3.54c0.61-1.3,1.07-2.61,1.39-3.95
			c0.32-1.34,0.51-2.65,0.57-3.93s-0.04-2.45-0.29-3.5c-0.31-1.28-0.92-2.22-1.83-2.82c-0.91-0.61-2-1.05-3.24-1.33
			s-2.61-0.47-4.07-0.58c-1.47-0.11-2.91-0.32-4.34-0.63c-1.43-0.32-2.77-0.81-4.02-1.49c-1.25-0.68-2.3-1.73-3.13-3.15
			c-0.16-0.3-0.33-0.48-0.48-0.55c-0.16-0.07-0.33-0.11-0.52-0.13c-0.91,2.58-1.48,4.84-1.72,6.79c-0.24,1.94-0.19,3.61,0.15,5
			c0.18,0.75,0.45,1.48,0.8,2.18c0.35,0.7,0.8,1.3,1.36,1.81l0,0.37c-0.82,0.54-1.56,1.28-2.2,2.23c-0.65,0.95-1.28,2.06-1.89,3.31
			c-0.62,1.25-1.23,2.6-1.83,4.03c-0.51,1.15-4.3,13.55-8.78,20.59C441.85,375.3,443.5,378.67,445.15,381.82z"/>
		<g>
			<path class="st0" d="M408.13,325.44c0.42,0.95,4.83,9.66,9.94,19.72c1.43-1.9,2.88-3.89,4.34-5.94
				c-4.39-8.74-8.11-16.13-8.65-17.23c-1.35-2.71-2.52-5.24-3.52-7.59c-1-2.35-1.7-4.38-2.12-6.09l-0.24-1
				c-0.08-0.35-0.13-0.66-0.13-0.93l-0.5-0.16c-0.81,3.11-1.3,5.77-1.45,7.99c-0.16,2.22-0.06,4.06,0.3,5.54
				C406.51,321.4,407.19,323.3,408.13,325.44z"/>
			<path class="st0" d="M493.16,352.41c-1.59,1.92-3.12,3.44-4.57,4.58c-1.46,1.14-2.92,2.05-4.38,2.74
				c-1.46,0.69-2.95,1.23-4.49,1.61c-1.53,0.39-11.31,3.56-13.64,4.7c-1.92,0.95-3.51,2.08-4.78,3.36c-1.27,1.29-2.24,2.69-2.92,4.2
				c-0.68,1.51-1.07,3.11-1.16,4.79c-0.1,1.68,0.05,3.36,0.46,5.04c0.76,3.16,1.88,6.01,3.35,8.55c0.9,1.55,1.94,3.01,3.05,4.43
				c0.34-0.49,1.84-3.1-0.92-7.23l0.01,0c-0.68-0.92-1.13-1.77-1.32-2.53c-0.28-1.16-0.24-2.4,0.12-3.71
				c0.36-1.31,1.15-2.62,2.37-3.91c1.22-1.29,2.94-2.52,5.16-3.68c2.22-1.16,7.7-2.8,8.86-3.06c1.16-0.27,2.19-0.46,3.08-0.58
				l0.22,0.13c-3.81,13.23-4.96,20.1-15.32,27.26c-2.46,1.7-8.62,3.33-16.2-6.23c-0.88-1.11-1.87-2.42-2.82-3.92
				c-0.7-1.21-1.41-2.45-2.12-3.76c-2.4-4.4-4.76-9.18-7.07-14.32c-0.96-2.1-4.97-10.18-9.48-19.19c-1.49,2.11-2.91,4.09-4.25,5.92
				c4.38,8.6,8.31,16.3,9.76,19.15c0.02,0.07,0.04,0.14,0.06,0.22c1.31,2.37,2.5,4.66,3.55,6.87c0.04,0.08,0.08,0.16,0.12,0.24
				c0.32,0.73,0.67,1.5,1.06,2.33c0.77,1.65,1.64,3.43,2.62,5.32c0.98,1.9,2,3.76,3.05,5.59c1.63,2.8,3.32,5.09,5.09,6.87
				c1.76,1.78,12.27,11.42,23.2,2.26c0,0,9.05-5.63,16.21-35.39l1.25-2.05c0.64-1.04,1.17-2.16,1.58-3.35
				c0.42-1.19,0.75-2.46,0.99-3.8c0.24-1.35,0.42-2.79,0.54-4.34c0.12-1.55,0.21-3.2,0.27-4.97L493.16,352.41z"/>
		</g>
		<path class="st0" d="M461.85,286.46c-0.01-0.69-0.02-1.42-0.01-2.2c-0.02-0.75-0.04-1.47-0.05-2.15
			c-0.01-0.69-0.04-1.17-0.06-1.43c-0.02-0.18-0.06-0.41-0.12-0.71c-0.06-0.29-0.21-0.43-0.45-0.4c-0.24,0.03-0.4,0.16-0.5,0.41
			c-0.09,0.25-0.22,0.5-0.37,0.76c-0.9,1.65-28.51,51.83-48.18,74.27c1.36,2.6,2.73,5.2,4.1,7.8l1.01,1.8
			c9-11.52,28.66-39.48,39.87-61.76l0.37,0.14c0.01,0.39,0.04,0.88,0.07,1.48c0.03,0.6,0.07,1.23,0.11,1.9s0.09,1.33,0.15,1.99
			c0.05,0.65,0.11,1.22,0.16,1.69c0.05,0.44,0.11,0.96,0.19,1.53c0.07,0.58,0.15,1.13,0.22,1.66c0.07,0.53,0.15,1.02,0.23,1.46
			c0.08,0.44,0.16,0.75,0.23,0.92c0.09,0.26,0.21,0.48,0.36,0.66c0.15,0.18,0.3,0.26,0.45,0.24c0.24-0.03,0.43-0.31,0.58-0.85
			c0.15-0.54,0.23-1.04,0.24-1.49c0.07-3.28,0.16-6.14,0.29-8.6s0.26-4.69,0.4-6.7c0.14-2.01,0.29-3.89,0.43-5.65
			c0.11-1.72,0.21-3.52,0.27-5.38C461.87,287.61,461.86,287.15,461.85,286.46z"/>
		<path class="st0" d="M437.56,387.04c-0.38-0.83-0.74-1.62-1.07-2.35c-1.12-2.34-2.3-4.62-3.61-6.99l-0.07-0.13
			c-2.62,0.62-5.39,0.26-7.84-1.24c-1.35-0.82-2.73-2.02-4.14-3.58c-0.4-0.45-0.8-1.02-1.21-1.54c-0.66-0.89-1.32-1.86-1.98-2.9
			c-0.21-0.35-0.43-0.67-0.64-1.04c-0.21-0.34-0.41-0.68-0.62-1.03c-0.26-0.44-0.51-0.9-0.77-1.35c-0.25-0.45-0.51-0.9-0.76-1.37
			c-1.58-2.99-3.16-5.99-4.72-8.98c-1.57-2.99-8.94-16.75-10.28-19.47c-1.35-2.71-2.52-5.24-3.52-7.59c-1-2.35-1.7-4.38-2.12-6.09
			c-0.08-0.32-0.16-0.65-0.24-1c-0.08-0.35-0.13-0.66-0.13-0.93l-0.5-0.16c-0.81,3.11-1.3,5.77-1.45,7.99
			c-0.16,2.22-0.06,4.06,0.3,5.54c0.4,1.65,1.07,3.55,2.02,5.7c0.95,2.15,2.04,4.4,3.26,6.76c1.1,2.12,7.01,13.04,9.19,17.01
			l0.34,0.62c0.1,0.18,0.19,0.34,0.26,0.47c0.07,0.13,0.13,0.24,0.2,0.37c1.24,2.24,2.41,4.39,3.51,6.44
			c0.04,0.08,0.09,0.17,0.13,0.24c1.2,2.24,2.25,4.33,3.14,6.26c0.9,1.93,1.5,3.55,1.82,4.85c0.38,1.57,0.47,3.1,0.28,4.6
			c-0.19,1.5-0.58,2.94-1.17,4.31c-0.59,1.37-1.34,2.65-2.24,3.85c-0.91,1.2-1.89,2.27-2.95,3.2c-1.06,0.93-2.16,1.71-3.3,2.34
			c-1.14,0.63-2.23,1.07-3.27,1.32l-0.43-0.26c0.54-5.38,0.3-10.16-0.71-14.37c-0.23-0.95-0.52-1.91-0.86-2.88
			c-1.71,1.55-3.43,3-5.13,4.38c0.21,0.42,0.47,0.84,0.67,1.27c0.88,1.87,1.54,3.71,1.97,5.5c0.37,1.54,0.53,2.86,0.48,3.98
			c-0.05,1.12-0.22,2.15-0.51,3.11l-0.31,0.26c-1.71,0.14-3.45-0.13-5.21-0.81c-7.6-2.94-11.24-10-13.47-17.33
			c-2.1-6.91-3.99-15.04-2.08-22.19c0.12-0.44,0.66-2.86,1.14-2.97c0,0,0.35-0.08,0.35-0.08c0.24,0.7,5.83,10.45,9.1,16
			c2.02-1.5,4.03-3.11,6.05-4.86c-4.63-7.81-14.11-23.72-14.57-24.71c0,0-0.43,0.11-0.43,0.11c-8.7,16.31-7.36,35.84,0.59,51.85
			c2.73,5.51,8.5,12.14,14.56,14.08l0.04,0.17c-1.36,3.52-3.9,7.55-7.63,12.1c-3.73,4.55-8.61,9.64-14.65,15.27
			c-0.26,0.31-0.57,0.63-0.92,0.96c-0.38,0.34-0.55,0.59-0.5,0.77c0.04,0.17,0.16,0.27,0.34,0.28c0.19,0.02,0.37,0,0.54-0.04
			c0.23-0.06,0.74-0.3,1.52-0.74c0.78-0.46,1.66-0.95,2.64-1.47c0.76-0.4,1.71-0.8,2.84-1.19c1.12-0.42,2.34-0.89,3.65-1.39
			c1.3-0.5,2.67-1.07,4.1-1.7c1.42-0.64,2.8-1.4,4.14-2.29c1.33-0.89,2.58-1.92,3.74-3.09s2.15-2.53,2.97-4.08
			c0.82-1.55,1.6-3.28,2.33-5.19c0.73-1.91,1.34-4.1,1.82-6.58l0.35-0.08c1.26,0.25,2.74,0.17,4.45-0.25
			c1.33-0.32,2.76-0.94,4.29-1.84c1.53-0.91,2.98-2.15,4.35-3.72c1.37-1.57,2.54-3.48,3.51-5.73c0.98-2.25,1.57-4.88,1.79-7.91
			c0.17-1.97,0.18-3.93,0.05-5.88c-0.1-1.46-0.28-2.82-0.46-4.19c0.07,0.07,0.13,0.16,0.19,0.23c1.79,1.84,3.6,3.27,5.41,4.31
			c1.81,1.03,3.59,1.7,5.34,2c2.68,0.46,5.24-0.03,7.5-1.18C438.1,388.18,437.82,387.59,437.56,387.04z"/>
		<path class="st0" d="M374.03,385.21c-2.34,1.13-4.69,2.18-7.06,3.07c-6.96,2.61-14.01,4.3-21.16,5.07
			c-3.85,0.42-7.68,0.46-11.48,0.13c-3.8-0.32-7.44-1.01-10.91-2.06c-3.47-1.05-6.73-2.47-9.77-4.25c-3.04-1.78-5.73-3.92-8.07-6.42
			c-2.34-2.49-4.26-5.33-5.75-8.53c-1.5-3.2-2.46-6.75-2.88-10.66c-0.41-3.82-0.27-7.66,0.42-11.52c0.69-3.85,2-7.73,3.92-11.62
			s4.46-7.8,7.62-11.71c3.16-3.91,7.01-7.83,11.53-11.77c0.33-0.31,0.48-0.56,0.46-0.77c-0.02-0.15-0.12-0.23-0.3-0.26
			c-0.18-0.03-0.39-0.03-0.63,0c-0.59,0.06-1.83,0.75-3.71,2.06c-1.89,1.31-4.11,3.31-6.67,5.98c-3.42,3.61-6.3,7.25-8.65,10.92
			c-2.34,3.67-4.2,7.38-5.57,11.13c-1.37,3.75-2.26,7.52-2.69,11.31c-0.43,3.79-0.44,7.62-0.02,11.47
			c0.55,5.13,1.69,9.75,3.41,13.87c1.72,4.12,3.89,7.75,6.5,10.9c2.62,3.15,5.64,5.82,9.05,8.02c3.42,2.19,7.1,3.93,11.07,5.22
			c3.96,1.28,8.14,2.11,12.52,2.47c4.39,0.37,8.86,0.3,13.43-0.19c7.68-0.83,15.24-2.76,22.7-5.8c2.47-1.01,4.92-2.2,7.36-3.48
			C376.67,393.7,375.14,389.47,374.03,385.21z"/>
		<path class="st0" d="M409.77,371.15c-1.2-2.23-2.47-4.58-3.83-7.03c-0.21-0.37-0.56-1.01-0.99-1.8
			c-5.91,5.64-11.51,10.89-17.44,15.02c-2.22,1.54-4.45,2.93-6.69,4.25c0.19,0.66,0.37,1.33,0.56,1.97c1.25,4.1,2.78,7.39,4.64,9.99
			c2.44-1.57,4.87-3.22,7.28-5.07c5.82-4.45,11.54-9.8,17.17-15.97C410.24,372.05,410.03,371.62,409.77,371.15z"/>
		<path class="st0" d="M320.25,325.37c-2.18-0.34-4.21-1.12-6.11-2.27c-1.45,1.53-2.82,3.06-4.04,4.57
			c-0.82,1.01-1.59,2.03-2.33,3.05c1.4,1.79,2.94,3.35,4.65,4.65c2.48,1.88,5.25,3.15,8.3,3.82c3.05,0.66,6.3,0.55,9.73-0.35
			c2.65-0.69,5.21-1.76,7.67-3.21c2.46-1.44,4.73-3.24,6.82-5.39c2.09-2.15,3.95-4.62,5.59-7.42c1.64-2.8,2.97-5.91,3.97-9.31
			c1.01-3.41,1.65-7.09,1.95-11.05c0.29-3.96,0.14-8.17-0.44-12.64c-0.22-2.84-0.57-5.73-1.04-8.67c-0.48-2.94-1.07-5.78-1.79-8.52
			c-0.43-1.64-1.03-3.36-1.78-5.15c-0.76-1.79-1.61-3.58-2.54-5.37c-0.93-1.79-1.9-3.57-2.92-5.34c-1.01-1.74-1.98-3.43-2.92-5.06
			c-0.94-1.63-1.8-3.18-2.58-4.64c-0.78-1.46-1.39-2.79-1.83-4l-0.46,0.03c-0.33,2.27-0.59,4.26-0.78,5.96
			c-0.19,1.7-0.31,3.15-0.36,4.37c-0.05,1.22-0.06,2.22-0.02,3.01c0.04,0.79,0.11,1.39,0.22,1.79c0.22,0.84,0.68,1.9,1.39,3.2
			c0.71,1.29,1.54,2.73,2.48,4.3c0.95,1.57,1.97,3.21,3.07,4.93c1.1,1.72,2.13,3.41,3.11,5.08c0.97,1.67,1.85,3.27,2.61,4.79
			c0.77,1.53,1.3,2.86,1.6,4.02c0.48,1.82,0.65,3.95,0.52,6.41c-0.13,2.45-0.56,5.04-1.3,7.76c-0.74,2.72-1.77,5.46-3.1,8.23
			c-1.33,2.76-2.97,5.34-4.93,7.74c-1.96,2.39-4.23,4.5-6.8,6.33c-2.57,1.83-5.46,3.16-8.66,4
			C324.87,325.6,322.55,325.72,320.25,325.37z"/>
		<path class="st0" d="M301.79,318.31c0.67,2.56,1.64,4.88,2.74,7.09c1.24-1.51,2.55-3.02,3.95-4.5c0.5-0.52,0.97-0.99,1.45-1.46
			c-0.47-0.54-0.96-1.03-1.39-1.64c-1.52-2.16-2.67-4.74-3.46-7.74c-0.6-2.28-0.95-4.56-1.07-6.84c-0.12-2.28-0.08-4.51,0.13-6.69
			c0.2-2.18,0.52-4.27,0.97-6.29c0.44-2.01,0.92-3.89,1.41-5.64c0.5-1.75,1-3.35,1.52-4.81c0.49-1.42,0.9-2.64,1.22-3.65
			c0.13-0.22,0.19-0.5,0.2-0.84c0-0.34-0.02-0.63-0.09-0.86c-0.05-0.17-0.15-0.27-0.31-0.29c-0.16-0.02-0.33-0.01-0.5,0.04
			c-0.97,1.24-1.86,2.76-2.67,4.56c-0.81,1.8-1.62,3.81-2.43,6.02c-1.1,3.09-1.93,6.11-2.49,9.06c-0.55,2.95-0.88,5.82-0.98,8.62
			c-0.1,2.8,0.01,5.52,0.33,8.16C300.66,313.27,301.14,315.83,301.79,318.31z"/>
	</g>
	<path class="st1" d="M632.28,469.5l-2-5.11l-14.35-36.66c-4.71-12.25-9.76-24.37-14.66-36.55l-14.79-36.5l-15.19-36.34l-0.24-0.57
		l-0.57,0.02c-5.85,0.16-11.69,0.44-17.54,0.65l-11.41-31.86l-0.08-0.23l-0.24,0.06l-16.54,4.01c-5.5,1.39-11.06,2.54-16.5,4.2
		c-7.14,2.15-8.39,2.32-11.31,3.53c0.16,0.36,0.31,0.72,0.47,1.07c3.99-1.12,8.6-2.41,11.28-3.13c5.41-1.48,10.98-2.47,16.54-3.71
		c4.92-1.02,9.82-2.1,14.72-3.2l11.73,34.7c4.12,12.16,8.18,24.34,12.49,36.43l23.97,68.33c-8.47,1.2-16.66,3-24.9,4.94
		c-9.69,2.36-19.27,5.13-28.72,8.31c-18.87,6.39-37.32,14.25-54.49,24.46c-8.63,5.02-16.86,10.7-24.77,16.77
		c-7.94,6.04-15.35,12.76-22.3,19.91c-5.78,6.07-11.14,12.55-16.01,19.35c-5.37,5.01-10.44,10.44-15.11,16.33l-1.71-77.92
		c-0.05,0-0.11,0-0.16,0l-1.71,77.68c-2.8-3.76-9.03-11.31-19.72-20.21c-3.95-4.9-8.13-9.6-12.63-14
		c-6.99-6.97-14.43-13.51-22.39-19.36c-7.93-5.89-16.16-11.38-24.78-16.21c-8.59-4.88-17.43-9.3-26.47-13.29
		c-9.05-3.95-18.29-7.46-27.67-10.56c-18.6-6.1-37.66-10.87-57.11-13.43l51.43-144.41l16.31,3.92c5.05,1.26,16.42,4.4,25.09,7.91
		c0.02-0.17,0.03-0.33,0.05-0.5c-3.37-1.85-10.88-5.3-24.67-9.38c-5.44-1.61-10.96-2.95-16.45-4.36l-1.83-0.47l-0.69,1.83
		l-12.19,32.39c-5-0.2-10-0.41-15-0.55l-0.57-0.02l-0.24,0.57l-15.19,36.34l-14.78,36.5c-4.89,12.18-9.95,24.29-14.66,36.54
		l-14.35,36.67l-1.99,5.08l5.25-0.32v37.94c0,0,188.4,0,227.02,57.46c38.62-57.46,227.02-57.46,227.02-57.46v-37.94L632.28,469.5z
		 M434.5,504.62c6.99-6.94,14.42-13.45,22.37-19.27c7.92-5.86,16.14-11.32,24.74-16.12c8.58-4.85,17.4-9.25,26.43-13.21
		c9.04-3.92,18.27-7.41,27.63-10.49c17.55-5.73,35.56-10.22,53.83-12.86l0.11,0.31l0.23-0.36c1.1-0.16,2.21-0.33,3.31-0.48
		l0.52-0.07l-0.17-0.48l-1.09-3.05l0.32-0.5c-0.16,0.02-0.32,0.04-0.47,0.06l-39.13-109.24l17.23,0.02l56.12,146.36
		c-21.72-1.4-43.53-0.91-65.18,1.07c-21.85,2.01-43.57,5.82-64.63,12.04c-10.51,3.17-20.8,7.07-30.74,11.75
		c-3.85,1.79-7.62,3.75-11.31,5.85c-10.91,5.75-21.36,12.52-30.98,20.51C427.04,512.34,430.65,508.37,434.5,504.62z M229.65,318.88
		l14.64-0.01l-1.18,3.13c-4.52,12.02-9.09,24.02-13.42,36.1l-26.31,72.39l-1.57,4.32l4.68,0.63c19.07,2.55,38.33,7.05,56.85,13.05
		c9.29,3.01,18.44,6.42,27.41,10.26c8.95,3.88,17.7,8.21,26.28,12.83c8.59,4.62,16.82,9.89,24.75,15.56
		c7.97,5.63,15.43,11.96,22.47,18.72c2.17,2.01,4.27,4.09,6.31,6.22c-5.11-3.76-10.96-7.63-17.63-11.48
		c-6.02-3.94-12.33-7.45-18.85-10.48c-9.93-4.68-20.23-8.58-30.74-11.75c-21.06-6.23-42.78-10.04-64.63-12.04
		c-21.66-1.99-43.46-2.47-65.19-1.07L229.65,318.88z"/>
	<g>
		<path class="st1" d="M171.42,644.34c-1.24-0.01-2.88-0.3-3.42-0.52v5.02l0.29-0.01v-0.34c0-1.76,1.12-2.9,2.88-2.94h3.88v16.93
			c-0.04,0.98-0.85,1.76-1.84,1.76h-0.36l-0.01,0.29h8.76l0-0.29h-0.36c-1,0-1.82-0.8-1.85-1.79v-16.91h3.87
			c1.77,0.04,2.89,1.18,2.88,2.94v0.34l0.29,0.01v-5.02c-0.53,0.22-2.18,0.51-3.42,0.52H171.42z"/>
		<path class="st1" d="M199.51,647.53h0.31c0.87,0,1.56,0.66,1.59,1.53v6.29h-7.59v-6.31c0.03-0.86,0.72-1.51,1.58-1.51h0.31v-0.29
			h-7.95v0.29h0.32c0.85,0,1.56,0.66,1.57,1.53v13.65c-0.01,0.87-0.72,1.53-1.57,1.53h-0.32v0.29h7.95v-0.29h-0.31
			c-0.86,0-1.56-0.66-1.58-1.52v-6.23h7.59v6.24c-0.03,0.87-0.72,1.52-1.59,1.52h-0.31v0.29h7.93v-0.29h-0.32
			c-0.86,0-1.55-0.65-1.57-1.51v-13.68c0.02-0.87,0.72-1.53,1.59-1.53h0.32v-0.29h-7.95V647.53z"/>
		<path class="st1" d="M218.74,663.38h-3.47v-6.83h3.31c1.33,0.04,2.16,1,2.16,2.28v0.2h0.3v-6.1h-0.3v0.18
			c0,1.29-0.85,2.25-2.2,2.28h-3.28v-6.99h4.15c1.67,0.02,2.62,1.07,2.62,2.73v0.27h0.3v-4.6c-0.45,0.18-1.91,0.44-2.99,0.44h-10.14
			v0.29h0.35c0.85,0,1.55,0.64,1.56,1.5v13.7c-0.02,0.86-0.71,1.51-1.56,1.51h-0.35v0.29h13.48h0.07l1.12-5.3h-0.28
			C222.85,661.79,221.18,663.35,218.74,663.38z"/>
		<path class="st1" d="M249.68,657.31c-0.71,4.69-2.56,6.46-6.67,6.45c-3.78-0.09-6-3.15-6-7.93c0-4.7,2.1-7.81,6.29-7.81
			c2.85,0,4.99,1.21,5.97,4.76h0.22v-4.58c-1.52-0.74-3.85-1.31-6.49-1.31c-6.51,0-10.39,3.36-10.39,9c0,5.71,3.98,9,10.39,9.03
			c3.75,0,6.11-1.43,7.23-3.25l-0.34-4.35L249.68,657.31z"/>
		<path class="st1" d="M265.7,647.53h0.4c0.72,0,1.29,0.49,1.32,1.21v9.7c-0.02,3.34-1.81,5.32-4.81,5.32
			c-2.92,0-4.65-2.11-4.65-5.64v-9.37c0.01-0.72,0.58-1.21,1.3-1.21h0.41v-0.29h-7.58v0.29h0.4c0.72,0,1.31,0.49,1.32,1.21v9.56
			c0,4.12,2.72,6.61,8.26,6.61c4.62,0,7.25-2.51,7.25-6.66v-9.53c0.02-0.71,0.6-1.19,1.32-1.19h0.4v-0.29h-5.32V647.53z"/>
		<path class="st1" d="M282.8,655.36l-4.56-2.8c-1.08-0.67-1.95-1.22-1.87-2.29c0.07-1.31,1.3-2.24,3.15-2.24
			c2.29,0,3.58,1.14,3.58,2.89h0.25l0.4-3.78h-1.56c-1.2-0.15-2.78-0.26-3.75-0.26c-2.93,0-4.95,1.62-5.2,4.36
			c-0.22,1.97,0.71,3.55,2.55,4.71l4.1,2.6c1.48,0.93,2.15,1.6,2.15,2.59c0,1.41-1.09,2.6-3.33,2.61c-3.08,0.01-4.93-2.17-4.76-4.77
			h-0.23c-0.7,1.09-1.09,3.29-0.65,4.39c0.83,0.9,2.83,1.54,5.31,1.54c4.01,0,6.59-1.96,6.77-5.22
			C285.3,657.63,284.27,656.27,282.8,655.36z"/>
		<path class="st1" d="M299.99,647.22h-10.63c-1.08,0-2.55-0.26-3.03-0.44v4.57h0.3v-0.27c0-1.64,0.95-2.68,2.64-2.71h3.33v14.35
			c-0.02,0.87-0.72,1.53-1.59,1.53h-0.3v0.29h7.96v-0.29h-0.3c-0.86,0-1.57-0.65-1.59-1.5v-14.37h3.33
			c1.68,0.02,2.65,1.07,2.64,2.71v0.27h0.29l0-4.57C302.65,646.96,301.07,647.22,299.99,647.22z"/>
		<path class="st1" d="M314.23,646.88c-6.1,0-10.19,3.45-10.19,9.02c0,5.56,4.09,9.01,10.19,9.01c6.11,0,10.21-3.45,10.21-9.01
			C324.44,650.33,320.35,646.88,314.23,646.88z M314.23,663.77c-3.49,0-5.77-3.01-5.77-7.87c0-4.88,2.28-7.89,5.77-7.89
			c3.51,0,5.77,3.01,5.77,7.89C320.01,660.76,317.74,663.77,314.23,663.77z"/>
		<path class="st1" d="M335.77,647.25h-9.75v0.29h0.34c0.89,0,1.6,0.63,1.64,1.5v13.65c-0.01,0.86-0.73,1.56-1.61,1.56h-0.36v0.29
			h9.73c6.18,0,9.9-3.21,9.9-8.63C345.66,650.48,341.95,647.25,335.77,647.25z M335.43,663.38h-3.25v-15h3.25
			c3.62,0,5.84,2.81,5.84,7.52C341.27,660.59,339.03,663.38,335.43,663.38z"/>
		<path class="st1" d="M353.44,662.73v-13.68c0.04-0.86,0.77-1.51,1.68-1.51h0.33v-0.29h-8.17v0.29h0.34c0.9,0,1.65,0.66,1.66,1.53
			v13.65c-0.01,0.87-0.76,1.53-1.66,1.53h-0.34v0.29h8.18v-0.29h-0.34C354.2,664.25,353.47,663.59,353.44,662.73z"/>
		<path class="st1" d="M388.76,647.54h0.49c0.87,0,1.56,0.63,1.57,1.47v9.47l-13.21-11.62l-0.28-0.01c0,0,0.31,1.31,0.31,3.26v12.66
			c-0.01,0.84-0.72,1.47-1.59,1.47h-0.25h-0.22c-0.79,0-1.71-0.45-2.26-1.61l-7.71-16.19h-0.24c-0.09,0.81-1.15,3.05-1.35,3.49
			l-5.94,12.8c-0.55,1.08-1.47,1.5-2.2,1.5h-0.23v0.29h5.76v-0.29h-0.23c-0.66,0-1.4-0.55-1-1.56l1.15-2.67h6.1l1.12,2.63
			c0.43,1.04-0.32,1.6-0.98,1.6h-0.23v0.29h8.25h0.22h7.84v-0.29h-0.48c-0.87,0-1.56-0.63-1.59-1.47v-9.52l13.24,11.66h0.26
			c0,0-0.31-1.34-0.31-3.35v-12.59c0.05-0.82,0.73-1.43,1.59-1.43h0.49v-0.29h-8.08V647.54z M361.82,658.88l2.58-6l2.55,6H361.82z"
			/>
		<path class="st1" d="M408.65,655.36l-4.56-2.8c-1.08-0.67-1.95-1.22-1.87-2.29c0.07-1.31,1.3-2.24,3.15-2.24
			c2.29,0,3.58,1.14,3.58,2.89h0.25l0.4-3.78h-1.56c-1.2-0.15-2.78-0.26-3.75-0.26c-2.93,0-4.95,1.62-5.2,4.36
			c-0.22,1.97,0.71,3.55,2.55,4.71l4.1,2.6c1.48,0.93,2.15,1.6,2.15,2.59c0,1.41-1.09,2.6-3.33,2.61c-3.08,0.01-4.93-2.17-4.76-4.77
			h-0.23c-0.7,1.09-1.09,3.29-0.65,4.39c0.83,0.9,2.83,1.54,5.31,1.54c4.01,0,6.59-1.96,6.77-5.22
			C411.15,657.63,410.12,656.27,408.65,655.36z"/>
		<path class="st1" d="M430.63,646.88c-6.1,0-10.19,3.45-10.19,9.02c0,5.56,4.09,9.01,10.19,9.01c6.11,0,10.21-3.45,10.21-9.01
			C440.84,650.33,436.74,646.88,430.63,646.88z M430.63,663.77c-3.49,0-5.77-3.01-5.77-7.87c0-4.88,2.28-7.89,5.77-7.89
			c3.51,0,5.77,3.01,5.77,7.89C436.4,660.76,434.14,663.77,430.63,663.77z"/>
		<path class="st1" d="M452.64,647.25h-10.17v0.29h0.35c0.86,0,1.56,0.64,1.57,1.51v13.7c-0.02,0.86-0.72,1.51-1.57,1.51h-0.35v0.29
			h8.01v-0.29h-0.35c-0.88,0-1.56-0.66-1.59-1.53v-6.18h3.34c1.33,0.04,2.16,1,2.16,2.28v0.2h0.3v-6.1h-0.3v0.18
			c0,1.29-0.85,2.25-2.2,2.28h-3.31v-6.99h4.15c1.7,0.02,2.66,1.09,2.66,2.75v0.27h0.3l0-4.61
			C455.19,646.99,453.72,647.24,452.64,647.25z"/>
		<path class="st1" d="M478.11,647.22h-10.63c-1.08,0-2.55-0.26-3.03-0.44v4.57h0.3v-0.27c0-1.64,0.95-2.68,2.64-2.71h3.33v14.35
			c-0.02,0.87-0.72,1.53-1.59,1.53h-0.3v0.29h7.96v-0.29h-0.3c-0.86,0-1.57-0.65-1.59-1.5v-14.37h3.33
			c1.68,0.02,2.65,1.07,2.64,2.71v0.27h0.29l0-4.57C480.76,646.96,479.19,647.22,478.11,647.22z"/>
		<path class="st1" d="M494.4,647.53h0.31c0.87,0,1.56,0.66,1.59,1.53v6.29h-7.59v-6.31c0.03-0.86,0.72-1.51,1.58-1.51h0.31v-0.29
			h-7.95v0.29h0.32c0.85,0,1.56,0.66,1.57,1.53v13.65c-0.01,0.87-0.72,1.53-1.57,1.53h-0.32v0.29h7.95v-0.29h-0.31
			c-0.86,0-1.56-0.66-1.58-1.52v-6.23h7.59v6.24c-0.03,0.87-0.72,1.52-1.58,1.52h-0.31v0.29h7.93v-0.29H502
			c-0.86,0-1.55-0.65-1.57-1.51v-13.68c0.02-0.87,0.72-1.53,1.58-1.53h0.32v-0.29h-7.95V647.53z"/>
		<path class="st1" d="M513.63,663.38h-3.47v-6.83h3.31c1.33,0.04,2.16,1,2.16,2.28v0.2h0.3v-6.1h-0.3v0.18
			c0,1.29-0.85,2.25-2.2,2.28h-3.28v-6.99h4.15c1.67,0.02,2.62,1.07,2.62,2.73v0.27h0.3v-4.6c-0.46,0.18-1.91,0.44-2.99,0.44H504.1
			v0.29h0.35c0.85,0,1.55,0.64,1.56,1.5v13.7c-0.02,0.86-0.71,1.51-1.56,1.51h-0.35v0.29h13.48h0.07l1.12-5.3h-0.28
			C517.73,661.79,516.06,663.35,513.63,663.38z"/>
		<path class="st1" d="M552.11,667.36c-3.84-1.47-6.19-2.39-8.88-2.93c4.56-1.28,7.33-4.86,7.33-9.97c0-6.48-4.41-10.49-11.32-10.49
			c-6.92,0-11.34,4.01-11.34,10.49c0,6.42,4.34,10.43,11.16,10.49c3.64,0.35,6.99,3.54,11.25,5.7c8.59,4.32,15.05,0.58,15.31-3.92
			l-0.16-0.12C562.27,669.2,557.31,669.35,552.11,667.36z M532.62,654.45c0-5.72,2.55-9.28,6.63-9.28c4.06,0,6.61,3.55,6.61,9.28
			c0,5.72-2.55,9.28-6.61,9.28C535.18,663.73,532.62,660.17,532.62,654.45z"/>
		<path class="st1" d="M566.26,647.53h0.4c0.72,0,1.29,0.49,1.32,1.21v9.7c-0.02,3.34-1.81,5.32-4.81,5.32
			c-2.92,0-4.65-2.11-4.65-5.64v-9.37c0.01-0.72,0.58-1.21,1.3-1.21h0.41v-0.29h-7.58v0.29h0.4c0.72,0,1.31,0.49,1.32,1.21v9.56
			c0,4.12,2.72,6.61,8.26,6.61c4.62,0,7.25-2.51,7.25-6.66v-9.53c0.02-0.71,0.6-1.19,1.32-1.19h0.4v-0.29h-5.32V647.53z"/>
		<path class="st1" d="M623.92,647.25v0.29h0.49c0.87,0,1.56,0.63,1.57,1.47v9.47l-13.21-11.62l-0.28-0.01c0,0,0.31,1.31,0.31,3.26
			v12.66c-0.01,0.84-0.72,1.47-1.59,1.47h-0.25h-0.22c-0.79,0-1.71-0.45-2.26-1.61l-7.71-16.19h-0.24
			c-0.09,0.81-1.15,3.05-1.35,3.49l-5.94,12.8c-0.42,0.82-1.05,1.26-1.66,1.43c-0.78-0.17-1.37-0.69-2.25-1.89
			c-1.01-1.35-1.85-2.77-2.09-3.21c-0.54-0.89-1.64-2.1-2.78-2.45c2.84-0.41,4-2.63,4-4.65c0-3.59-3.1-4.72-6.29-4.72l-8.86,0v0.29
			h0.36c0.83,0,1.5,0.63,1.52,1.5v13.71c-0.02,0.86-0.71,1.5-1.53,1.5h-0.35v0.29h7.93v-0.29h-0.31c-0.77,0-1.56-0.57-1.57-1.53
			v-14.28c0.33,0.01,0.9-0.02,1.65,0.01c1,0.05,2.93,0.46,3.06,3.3c0.02,0.56-0.04,0.98-0.1,1.21c-0.48,2.42-1.8,2.87-2.99,2.88
			h-0.74v0.24c0.53,0.04,1.24,0.56,1.73,1.77c0.26,0.97,1.3,2.9,1.93,3.93c1.37,2.16,2.84,2.76,5.97,2.76h0.92h1.49h4.26v-0.29
			h-0.23c-0.66,0-1.4-0.55-1-1.56l1.15-2.67h6.1l1.12,2.63c0.43,1.04-0.32,1.6-0.98,1.6h-0.23v0.29h8.25h0.22h7.84v-0.29h-0.48
			c-0.87,0-1.56-0.63-1.59-1.47v-9.52l13.24,11.66h0.26c0,0-0.31-1.34-0.31-3.35v-12.59c0.05-0.82,0.73-1.43,1.59-1.43H632v-0.29
			H623.92z M596.98,658.88l2.58-6l2.55,6H596.98z"/>
	</g>
</g>
</svg>
